<?xml version="1.0" encoding="utf-8"?>
<!-- Generator: Adobe Illustrator 19.0.0, SVG Export Plug-In . SVG Version: 6.00 Build 0)  -->
<svg version="1.1" id="Layer_1" xmlns="http://www.w3.org/2000/svg" xmlns:xlink="http://www.w3.org/1999/xlink" x="0px" y="0px"
	 viewBox="0 0 500 500" style="enable-background:new 0 0 500 500;" xml:space="preserve">
<style type="text/css">
	.st0{fill:#ED1C24;}
</style>
<g id="XMLID_38_">
	<path id="XMLID_45_" class="st0" d="M175.3,254.3c2.5-14.6-3.9-24.8-17.3-24.8c-11.6,0-21.8,8.4-23.9,21.6
		c-2.1,13.5,5.7,20.9,17.3,20.9c8.4,0,18-3.3,22.1-13.3h-13.7c-1.4,2.4-3.7,3.5-5.9,3.5c-3.8,0-6.6-3.1-5.9-7.9L175.3,254.3
		L175.3,254.3z M149.2,246.2c0.7-4.3,3.5-7,7.8-7c3.4,0,5.8,3.3,5.2,7H149.2z"/>
	<path id="XMLID_48_" class="st0" d="M195.3,260.4c-4.7,0-4.9-4.9-4.2-9.1c0.7-4.4,2.8-9.5,7.6-9.5c4.8,0,5.4,4.8,4.7,9.3
		C202.6,255.8,200.3,260.4,195.3,260.4 M214.1,270.8l8.8-55.2h-14.3l-3,19.1c-2.4-4-5.4-5.2-9.9-5.2c-8.6,0-16.7,8.7-18.8,22
		c-1.8,11.3,2.3,20.5,13.2,20.5c4.6,0,8-1.6,12.1-6.5l-0.9,5.4L214.1,270.8L214.1,270.8z"/>
	<path id="XMLID_51_" class="st0" d="M325.8,254.3c2.5-14.6-3.9-24.8-17.3-24.8c-11.6,0-21.8,8.4-23.9,21.6
		c-2.1,13.5,5.7,20.9,17.3,20.9c8.4,0,18-3.3,22.1-13.3h-13.7c-1.4,2.4-3.7,3.5-5.9,3.5c-3.8,0-6.6-3.1-5.9-7.9L325.8,254.3
		L325.8,254.3z M299.7,246.2c0.7-4.3,3.5-7,7.8-7c3.4,0,5.8,3.3,5.2,7H299.7z"/>
	<path id="XMLID_55_" class="st0" d="M400.9,254.3c2.5-14.6-3.9-24.8-17.3-24.8c-11.6,0-21.8,8.4-23.9,21.6
		c-2.1,13.5,5.7,20.9,17.3,20.9c8.4,0,18-3.3,22.1-13.3h-13.7c-1.4,2.4-3.7,3.5-5.9,3.5c-3.8,0-6.6-3.1-5.8-7.9L400.9,254.3
		L400.9,254.3z M374.7,246.2c0.7-4.3,3.5-7,7.8-7c3.4,0,5.8,3.3,5.2,7H374.7z"/>
	<polygon id="XMLID_56_" class="st0" points="83.8,270.8 86.9,251.4 104.7,251.4 106.7,238.5 88.9,238.5 90.5,228.5 112.9,228.5 
		114.9,215.6 76.3,215.6 67.5,270.8 	"/>
	<path id="XMLID_57_" class="st0" d="M104.4,270.8h14.4l2.2-13.9c1.4-8.7,4.8-11.7,10.7-11.7c1,0,2,0.3,2.9,0.5l2.5-15.9
		c-0.6-0.1-1.2-0.2-1.8-0.2c-5.6,0-9.6,3-12.6,9.3h-0.1l1.3-8.1h-13L104.4,270.8L104.4,270.8z"/>
	<polygon id="XMLID_61_" class="st0" points="237.8,270.8 240.7,252.1 241.7,243.5 242.4,235.4 242.5,235.4 245.9,270.8 
		257.2,270.8 271.9,235.4 272,235.4 269.6,245.3 268,253.9 265.4,270.8 280,270.8 288.8,215.6 269.1,215.6 254.9,250 251.6,215.6 
		231.9,215.6 223.1,270.8 	"/>
	<path id="XMLID_62_" class="st0" d="M339.6,230.6h-14.4l6.1,36.6c0.7,4.5-0.5,5.9-5,5.9c-1,0-1.9-0.1-3-0.1l-1.8,11.1
		c1.1,0,3.7,0.3,6.3,0.3c12.8,0,14.9-3.9,20.7-16.3l17.5-37.5h-13.8L342,255.4L339.6,230.6L339.6,230.6z"/>
	<path id="XMLID_63_" class="st0" d="M399.8,270.8h14.4l2.2-13.9c1.4-8.7,4.8-11.7,10.7-11.7c1,0,2,0.3,2.9,0.5l2.5-15.9
		c-0.6-0.1-1.2-0.2-1.8-0.2c-5.6,0-9.6,3-12.6,9.3H418l1.3-8.1h-13L399.8,270.8L399.8,270.8z"/>
	<path id="XMLID_72_" class="st0" d="M424.5,266.1h0.7c0.8,0,1.4-0.3,1.4-1c0-0.5-0.4-1-1.4-1c-0.3,0-0.5,0-0.7,0V266.1z
		 M424.5,269.3h-0.9v-5.8c0.5-0.1,1-0.1,1.6-0.1c0.9,0,1.5,0.2,1.8,0.4c0.3,0.3,0.5,0.6,0.5,1.2c0,0.8-0.5,1.2-1.1,1.4v0
		c0.5,0.1,0.9,0.6,1,1.4c0.1,0.9,0.3,1.3,0.4,1.4h-1c-0.1-0.2-0.3-0.7-0.4-1.5c-0.1-0.7-0.5-1-1.3-1h-0.6L424.5,269.3L424.5,269.3z
		 M425.5,261.9c-2.3,0-4.2,2-4.2,4.4c0,2.5,1.9,4.4,4.2,4.4c2.3,0,4.2-1.9,4.2-4.4C429.7,263.8,427.8,261.9,425.5,261.9L425.5,261.9
		L425.5,261.9z M425.5,261.1c2.9,0,5.1,2.3,5.1,5.2c0,2.9-2.3,5.2-5.1,5.2c-2.9,0-5.2-2.3-5.2-5.2
		C420.3,263.4,422.6,261.1,425.5,261.1L425.5,261.1L425.5,261.1z"/>
</g>
</svg>
