<svg xmlns="http://www.w3.org/2000/svg" width="548" height="117" viewBox="0 0 5478 1174">
  <path fill="#ed1c24" d="M1290 533c10-63 51-102 114-102 50 0 85 48 76 102h-190zm380 117c38-210-56-360-251-360a357 357 0 0 0-349 314c-32 197 82 304 251 304 123 0 263-48 322-193h-200a100 100 0 0 1-86 51c-56 0-97-45-86-115h400zm566 242l128-805h-210l-44 278c-35-58-78-76-145-76-125 0-243 126-274 320-26 166 33 300 192 300 68 0 117-24 177-96l-12 79h188zm-274-152c-68 0-70-72-61-133 10-65 41-139 110-139 70 0 79 70 68 135-10 69-44 137-117 137zm1522-207c10-63 51-102 113-102 50 0 85 48 77 102h-190zm380 118c37-211-57-361-252-361a357 357 0 0 0-349 315c-31 197 83 304 252 304 122 0 263-48 322-193h-200a100 100 0 0 1-87 51c-55 0-96-45-85-115h400zm714-118c10-63 51-102 114-102 49 0 85 48 76 102h-190zm380 118c37-211-57-361-252-361a357 357 0 0 0-349 315c-30 197 83 304 252 304 123 0 263-48 322-193h-200a100 100 0 0 1-87 51c-55 0-96-45-85-115h400zM336 892l45-283h259l30-188H411l23-146h326l30-188H226L99 892h237zM637 892h210l31-203c20-126 70-170 156-170 14 0 29 4 42 6l37-232c-9-2-17-4-27-4-81 0-140 44-183 135h-2l19-118H730l-93 586zm1944 0l43-273 15-125 9-119h2l50 517h165l213-517h2l-35 145-23 126-39 246h214l127-805h-286l-208 502-48-502h-287l-127 805h213zm1485-586h-210l88 533c10 65-8 86-73 86l-43-1-26 162c16 0 54 5 92 5 186 0 217-58 301-239l256-546h-201l-149 360-35-360zm877 586h210l32-203c20-126 70-170 156-170 14 0 28 4 42 6l37-232c-10-2-18-4-27-4-81 0-140 44-183 135h-2l18-118h-190l-93 586zm375-142c41 0 74 34 74 76 0 43-33 76-75 76a75 75 0 0 1-75-76c0-42 34-76 75-76zm0 12a63 63 0 0 0-62 64c0 36 28 64 62 64 33 0 60-28 60-64s-27-64-60-64zm-16 108h-14v-85l24-2c13 0 22 3 27 7 5 3 8 10 8 17 0 11-8 18-17 20v2c8 0 13 8 14 20a70 70 0 0 0 6 21h-15c-2-3-4-10-5-21-2-11-8-15-19-15h-9v36zm0-47h10c11 0 20-4 20-14 0-8-5-15-20-15h-10v30z"/>
</svg>